<?xml version="1.0" standalone="no"?>
<!DOCTYPE svg PUBLIC "-//W3C//DTD SVG 20010904//EN"
 "http://www.w3.org/TR/2001/REC-SVG-20010904/DTD/svg10.dtd">
<svg version="1.0" xmlns="http://www.w3.org/2000/svg"
 width="700.000000pt" height="700.000000pt" viewBox="0 0 700.000000 700.000000"
 preserveAspectRatio="xMidYMid meet">
<metadata>
Created by potrace 1.11, written by Peter Selinger 2001-2013
</metadata>
<g transform="translate(0.000000,700.000000) scale(0.100000,-0.100000)"
fill="#000000" stroke="none">
<path d="M3278 6995 c-2 -1 -41 -5 -88 -9 -87 -7 -105 -9 -225 -27 -116 -18
-123 -19 -192 -35 -184 -42 -248 -59 -369 -99 -264 -88 -538 -216 -759 -356
-320 -201 -638 -482 -856 -756 -31 -39 -60 -69 -63 -66 -3 4 -35 65 -70 137
-35 72 -73 139 -83 148 -27 25 -78 31 -113 13 -26 -14 -33 -14 -52 -1 -25 16
-63 15 -93 -1 -13 -8 -27 -7 -49 2 -35 14 -94 12 -126 -5 -25 -14 -43 -55 -34
-82 4 -15 9 -17 20 -7 17 14 77 6 110 -16 l24 -15 0 -215 c0 -117 -4 -225 -10
-239 -5 -14 -27 -38 -50 -55 l-40 -29 38 -27 c63 -47 62 -42 62 -244 l0 -186
-33 -85 -34 -85 -54 1 c-30 0 -57 -3 -60 -8 -18 -28 30 -98 67 -98 17 0 17 -1
4 -35 -10 -27 -57 -204 -65 -246 -3 -13 -11 -58 -20 -99 -8 -41 -17 -90 -20
-107 -3 -18 -7 -45 -10 -60 -2 -16 -7 -52 -10 -80 -3 -29 -8 -77 -12 -105 -10
-69 -10 -568 -1 -633 5 -27 11 -72 14 -100 15 -138 27 -206 59 -355 70 -325
244 -759 410 -1023 30 -49 55 -90 55 -93 0 -3 4 -10 10 -17 5 -7 46 -64 91
-126 72 -103 179 -239 234 -297 243 -261 429 -421 682 -590 77 -52 145 -94
149 -94 4 0 15 -6 23 -14 27 -23 260 -140 392 -196 281 -120 597 -208 874
-245 22 -2 56 -7 75 -10 186 -26 698 -27 838 0 16 3 104 15 147 20 324 41 869
235 1167 415 37 22 70 40 73 40 3 0 11 5 18 10 7 6 62 43 122 83 275 182 494
377 734 654 60 70 76 78 117 62 35 -14 98 -13 125 2 15 8 29 7 51 -2 67 -28
127 -2 131 56 2 28 0 29 -36 26 -44 -3 -63 10 -107 76 -57 83 -57 75 3 171
205 326 382 755 453 1097 16 79 54 301 59 350 4 33 9 71 12 85 11 55 14 546 4
619 -6 42 -13 102 -16 134 -4 32 -8 68 -11 80 -2 12 -7 42 -10 67 -9 67 -70
335 -94 412 -11 37 -21 70 -21 73 0 11 -74 208 -116 310 -278 664 -794 1260
-1415 1632 -119 71 -304 168 -398 208 -36 15 -83 35 -105 45 -116 51 -399 137
-563 171 -54 11 -106 22 -117 25 -11 2 -38 6 -60 9 -22 3 -51 7 -65 10 -13 2
-52 7 -86 11 -33 3 -74 8 -90 10 -32 5 -540 14 -546 9z m-2714 -1407 c25 -51
46 -97 46 -103 0 -6 -7 -21 -16 -34 l-16 -23 -21 44 c-11 23 -21 48 -23 53
-24 82 -33 123 -28 138 3 9 7 17 9 17 2 0 24 -41 49 -92z m-103 -123 l61 -120
-17 -30 c-41 -72 -80 -143 -96 -175 -10 -19 -19 -30 -20 -25 -5 43 -2 491 4
482 4 -7 35 -66 68 -132z"/>
</g>
</svg>
