<svg width="400" height="400" viewBox="0 0 400 400" fill="none" xmlns="http://www.w3.org/2000/svg">
<circle cx="200" cy="200" r="200" fill="#EF2D56"/>
<path d="M269.906 319.75C267.938 317.75 266.375 315.375 265.219 312.625C264.094 309.875 263.406 307.516 263.156 305.547C262.906 303.578 262.688 302.312 262.5 301.75C262.344 301.188 262.062 300.656 261.656 300.156C260.844 299.125 259.359 298.078 257.203 297.016C259.922 295.797 261.656 293.844 262.406 291.156C262.625 290.406 262.797 289.656 262.922 288.906C263.734 283.312 266.438 278.641 271.031 274.891C275.625 271.109 280.984 269.219 287.109 269.219C293.484 269.219 298.969 271.125 303.562 274.938C308.031 278.656 310.672 283.312 311.484 288.906C311.766 290.875 312.188 292.312 312.75 293.219C313.812 294.875 315.297 296.141 317.203 297.016C315.078 298.047 313.703 298.953 313.078 299.734C312.234 300.828 311.703 302.125 311.484 303.625C310.484 311 307.922 316.609 303.797 320.453C299.672 324.266 294.172 326.172 287.297 326.172C279.922 326.172 274.125 324.031 269.906 319.75ZM295.172 287.547C295.172 279.734 292.516 275.828 287.203 275.828C281.891 275.828 279.234 279.734 279.234 287.547V308.312C279.234 315.812 281.875 319.562 287.156 319.562C292.5 319.562 295.172 315.812 295.172 308.312V287.547ZM299.672 312.578C301.234 311.984 302.094 309.938 302.25 306.438C302.438 302.938 302.531 300.344 302.531 298.656C302.531 296.938 302.516 295.516 302.484 294.391C302.484 293.234 302.469 292.047 302.438 290.828C302.312 286.266 301.953 283.609 301.359 282.859C300.766 282.109 300.203 281.609 299.672 281.359V312.578ZM271.594 312.578C272.031 312.234 272.25 311.844 272.25 311.406C272.25 310.719 272.109 309.844 271.828 308.781C270.547 303.875 269.906 300.469 269.906 298.562C269.906 296.625 269.969 295.125 270.094 294.062C270.219 292.969 270.375 291.875 270.562 290.781C270.969 288.656 271.391 286.781 271.828 285.156C272.109 284.094 272.25 283.375 272.25 283C272.25 282.25 272.031 281.703 271.594 281.359C270.281 282.922 269.281 285.016 268.594 287.641C267.906 290.266 267.344 292.578 266.906 294.578C266.75 295.422 265.828 296.234 264.141 297.016C265.828 297.797 266.75 298.578 266.906 299.359C268.062 304.641 269.016 308 269.766 309.438C270.516 310.875 271.125 311.922 271.594 312.578Z" fill="#363537"/>
<path d="M187.971 137.77C185.646 139.991 183.408 141.102 181.254 141.102C180.058 141.102 179.238 140.658 178.793 139.769C179.58 138.983 179.973 138.197 179.973 137.411C179.973 136.625 179.853 136.026 179.614 135.616L178.947 134.437L179.768 135.975C178.947 135.599 178.315 134.967 177.871 134.078C177.426 133.189 177.204 132.113 177.204 130.848C177.204 129.549 177.922 128.08 179.357 126.439C178.674 125.482 178.332 124.422 178.332 123.26C178.332 122.098 178.52 121.141 178.896 120.389C179.306 119.603 179.819 118.902 180.434 118.287C181.801 116.988 183.254 116.339 184.792 116.339C185.817 116.339 186.552 116.698 186.997 117.416C186.074 118.407 185.612 119.979 185.612 122.132C185.612 124.251 185.971 126.063 186.689 127.567C187.441 129.071 188.449 130.353 189.714 131.412C192.38 133.668 195.661 134.796 199.558 134.796C203.898 134.796 206.906 133.207 208.581 130.028C209.06 129.071 209.299 128.114 209.299 127.157C209.299 126.166 209.077 125.294 208.632 124.542C208.188 123.756 207.607 123.004 206.889 122.286C205.693 121.124 203.864 119.791 201.403 118.287C199.045 116.612 196.259 115.775 193.046 115.775C190.961 115.775 189.56 115.946 188.842 116.288C189.287 115.262 189.509 114.237 189.509 113.211C189.509 112.186 188.825 111.075 187.458 109.879C186.091 108.648 184.86 107.418 183.767 106.188C182.707 104.957 181.853 103.727 181.203 102.496C179.904 100.172 179.255 97.7109 179.255 95.1133C179.255 92.5156 179.785 90.2256 180.844 88.2432C181.938 86.2266 183.459 84.5005 185.407 83.0649C189.475 80.0229 194.687 78.502 201.044 78.502C204.121 78.502 206.223 78.6387 207.351 78.9121C208.513 79.1855 209.436 79.4419 210.119 79.6812C211.042 80.0229 212.17 80.1938 213.503 80.1938C214.836 80.1938 215.759 79.9033 216.271 79.3223C216.818 78.7412 217.092 78.2114 217.092 77.7329C217.092 77.2202 217.041 76.8271 216.938 76.5537C217.143 76.4854 217.451 76.4512 217.861 76.4512C218.271 76.4512 218.732 76.5708 219.245 76.8101C219.792 77.0493 220.271 77.374 220.681 77.7842C221.501 78.707 221.911 79.6982 221.911 80.7578C221.911 81.7832 221.706 82.5693 221.296 83.1162C222.253 84.0049 222.731 85.2695 222.731 86.9102C222.731 88.5508 222.048 89.9351 220.681 91.063C220.988 91.6782 221.142 92.4302 221.142 93.3188C221.142 94.2075 220.664 95.062 219.707 95.8823C218.75 96.7026 217.844 97.1128 216.989 97.1128C215.52 97.1128 214.528 96.9248 214.016 96.5488C214.46 95.4551 214.682 94.2759 214.682 93.0112C214.682 91.7124 214.34 90.4819 213.657 89.3198C212.973 88.1577 212.102 87.2178 211.042 86.5C209.06 85.1328 206.701 84.4492 203.967 84.4492C200.515 84.4492 198.19 85.543 196.994 87.7305C196.618 88.4141 196.43 89.166 196.43 89.9863C196.43 90.7725 196.533 91.5073 196.738 92.1909C196.977 92.8403 197.353 93.5068 197.866 94.1904C198.857 95.5234 200.258 96.7881 202.07 97.9844C204.428 99.5225 206.069 100.292 206.992 100.292C208.974 100.292 210.7 99.813 212.17 98.856C211.76 100.497 211.555 101.642 211.555 102.291C211.555 103.282 212.341 104.427 213.913 105.726C218.322 108.768 221.33 111.554 222.937 114.083C224.475 116.544 225.244 119.278 225.244 122.286C225.244 125.294 224.577 127.875 223.244 130.028C221.911 132.147 220.1 133.976 217.81 135.514C213.059 138.692 207.299 140.282 200.532 140.282C195.917 140.282 191.73 139.444 187.971 137.77ZM186.176 90.8066C185.185 91.2852 184.689 92.6182 184.689 94.8057C184.689 96.959 185.39 99.0269 186.792 101.009C188.193 102.958 190.415 105.162 193.457 107.623C194.174 108.17 194.533 108.7 194.533 109.212C194.533 109.999 194.465 110.631 194.328 111.109C194.738 111.007 195.456 110.904 196.481 110.802C198.977 110.562 202.07 111.725 205.761 114.288C211.64 117.911 214.58 121.722 214.58 125.721C214.58 127.225 214.375 128.353 213.964 129.105C215.195 128.866 216.135 127.823 216.784 125.978C216.955 125.431 217.041 124.867 217.041 124.286C217.041 121.517 215.537 118.714 212.529 115.877C209.555 113.006 205.266 110.238 199.66 107.572C190.363 102.855 185.869 97.2666 186.176 90.8066Z" fill="#363537"/>
<path d="M157.705 140.025C152.886 140.025 150.288 136.693 149.912 130.028C148.169 133.172 145.811 135.667 142.837 137.513C139.897 139.359 136.719 140.282 133.301 140.282C129.917 140.282 127.166 139.82 125.046 138.897C122.927 137.975 121.167 136.642 119.766 134.898C117.031 131.48 115.664 126.627 115.664 120.338V117.159C115.664 113.194 113.579 110.255 109.409 108.341C111.87 107.145 113.442 106.136 114.126 105.316C115.151 104.051 115.664 102.633 115.664 101.061V94.1392C115.664 91.2339 114.673 89.6616 112.69 89.4224C112.109 89.354 111.375 89.3198 110.486 89.3198C109.597 89.3198 108.777 89.6104 108.025 90.1914C107.546 89.542 107.307 88.8755 107.307 88.1919C107.307 87.4741 107.478 86.688 107.82 85.8335C108.196 84.9448 108.76 84.1074 109.512 83.3213C111.289 81.4756 113.357 80.5527 115.715 80.5527C118.074 80.5527 120.295 80.9458 122.38 81.7319C123.884 79.5786 125.662 78.502 127.712 78.502C131.233 78.502 132.993 80.3477 132.993 84.0391V117.416C132.993 123.91 134.497 127.806 137.505 129.105C138.462 129.515 139.521 129.72 140.684 129.72C141.88 129.72 142.957 129.481 143.914 129.002C144.871 128.49 145.708 127.806 146.426 126.952C147.759 125.277 148.613 122.987 148.989 120.082V94.1392C148.989 90.2427 147.4 88.2944 144.221 88.2944C143.059 88.2944 142.102 88.585 141.35 89.166C140.872 88.5166 140.632 87.8501 140.632 87.1665C140.632 86.4487 140.803 85.7139 141.145 84.9619C141.521 84.1758 142.085 83.458 142.837 82.8086C144.512 81.3047 146.545 80.5527 148.938 80.5527C151.365 80.5527 153.621 80.9458 155.706 81.7319C157.209 79.5786 158.987 78.502 161.038 78.502C164.558 78.502 166.318 80.3477 166.318 84.0391V101.061C166.318 102.633 166.626 103.795 167.241 104.547C168.335 105.88 170.112 107.145 172.573 108.341C168.403 110.255 166.318 113.194 166.318 117.159V130.387C166.968 133.019 168.386 134.334 170.574 134.334C171.736 134.334 172.693 134.044 173.445 133.463C173.923 134.112 174.163 134.933 174.163 135.924C174.163 136.881 173.667 137.804 172.676 138.692C171.719 139.581 170.198 140.025 168.113 140.025C166.062 140.025 164.114 139.479 162.268 138.385C160.901 139.479 159.38 140.025 157.705 140.025ZM153.86 125.414C155.842 124.627 156.885 120.851 156.987 114.083C156.987 112.647 156.987 111.007 156.987 109.161C156.987 107.315 156.97 105.743 156.936 104.444C156.936 103.111 156.919 101.847 156.885 100.65C156.748 96.3438 156.355 93.7803 155.706 92.96C155.056 92.1055 154.441 91.5415 153.86 91.2681V125.414ZM123.201 108.341L123.354 101.573C123.354 98.5312 123.252 96.5146 123.047 95.5234C122.466 92.9258 121.646 91.5073 120.586 91.2681V94.6006C120.586 100.377 120.449 103.778 120.176 104.803C119.937 105.794 119.526 106.546 118.945 107.059C118.398 107.538 117.578 107.965 116.484 108.341C118.535 109.059 119.697 109.93 119.971 110.956C120.381 112.596 120.586 116.305 120.586 122.081V125.414C121.611 125.174 122.449 123.653 123.098 120.851C123.269 120.064 123.354 118.15 123.354 115.108L123.201 108.341Z" fill="#363537"/>
<path d="M0 200C0 200 0 200 80 200C160 200 81 116.5 161 116.5C241 116.5 160 289 240 289C320 289 240 200 320 200C400 200 400 200 400 200" stroke="#EFD6AC" stroke-width="30" stroke-linejoin="round"/>
<path d="M205.094 325.938C203.031 325.938 201.203 325.438 199.609 324.438C198.016 325.438 196.531 325.938 195.156 325.938C193.812 325.938 192.703 325.812 191.828 325.562C190.953 325.344 190.188 325.031 189.531 324.625C188.188 323.812 187.516 322.797 187.516 321.578C187.516 320.953 187.688 320.406 188.031 319.938C188.719 320.469 189.594 320.734 190.656 320.734C193.438 320.734 195.359 319.547 196.422 317.172V294.25C196.422 292.844 196.125 291.766 195.531 291.016C194.594 289.797 192.984 288.641 190.703 287.547C192.797 286.578 194.172 285.734 194.828 285.016C195.891 283.797 196.422 282.438 196.422 280.938V261.156C195.359 258.75 193.438 257.547 190.656 257.547C189.594 257.547 188.719 257.812 188.031 258.344C187.688 257.875 187.516 257.344 187.516 256.75C187.516 256.125 187.688 255.547 188.031 255.016C188.406 254.484 188.906 254.031 189.531 253.656C190.969 252.781 192.609 252.344 194.453 252.344C196.328 252.344 198.047 252.859 199.609 253.891C201.234 252.859 203.047 252.344 205.047 252.344C207.234 252.344 209.141 252.922 210.766 254.078C214.234 252.609 217.688 251.875 221.125 251.875C224.562 251.875 227.688 252.219 230.5 252.906C233.344 253.562 235.906 254.5 238.188 255.719C243.156 258.344 246.25 261.75 247.469 265.938C248.156 268.25 249.641 269.969 251.922 271.094C249.391 272.844 247.828 274.844 247.234 277.094C245.922 282.031 243.266 285.25 239.266 286.75C245.141 288.375 248.969 292.219 250.75 298.281C251.375 300.438 252.859 302.203 255.203 303.578C252.797 304.922 251.188 306.953 250.375 309.672C249.562 312.391 248.125 314.844 246.062 317.031C244.031 319.188 241.656 320.969 238.938 322.375C233.688 325.062 227.766 326.406 221.172 326.406C217.234 326.406 213.719 325.703 210.625 324.297C209 325.391 207.156 325.938 205.094 325.938ZM222.438 284.5C225.188 284.5 227.141 283.844 228.297 282.531C229.516 281.188 230.125 278.875 230.125 275.594V264.766C230.125 262.859 229.125 261.25 227.125 259.938C225.375 258.781 223.75 258.203 222.25 258.203C220.781 258.203 219.562 258.391 218.594 258.766C217.656 259.109 216.812 259.594 216.062 260.219C214.469 261.531 213.672 263.109 213.672 264.953V284.5H222.438ZM232.797 259.281C233.859 261.656 234.391 265.125 234.391 269.688C234.391 276.406 233.953 280.766 233.078 282.766C234.391 282.516 235.5 281.25 236.406 278.969C236.75 278.125 237 277.234 237.156 276.297C237.344 275.359 237.484 274.641 237.578 274.141C237.703 273.609 237.875 273.156 238.094 272.781C238.562 272 239.406 271.406 240.625 271C239.375 270.594 238.594 270.156 238.281 269.688C237.875 269.156 237.547 268.188 237.297 266.781C237.047 265.375 236.75 264.234 236.406 263.359C236.062 262.453 235.688 261.719 235.281 261.156C234.5 260.031 233.672 259.406 232.797 259.281ZM200.922 312.578C202.484 311.984 203.344 309.938 203.5 306.438C203.688 302.938 203.781 298.094 203.781 291.906C203.781 285.719 203.766 281.609 203.734 279.578C203.734 277.516 203.719 275.859 203.688 274.609C203.594 270.922 203.234 268.703 202.609 267.953C202.016 267.172 201.453 266.656 200.922 266.406C200.922 277.281 200.734 283.469 200.359 284.969C199.922 286.219 198.859 287.109 197.172 287.641C199.047 288.297 200.109 289.094 200.359 290.031C200.734 291.531 200.922 297.016 200.922 306.484V312.578ZM213.672 312.766C213.672 314.953 214.5 316.75 216.156 318.156C217.75 319.469 219.656 320.125 221.875 320.125C224.031 320.125 225.844 319.656 227.312 318.719C230.125 316.875 231.531 314.766 231.531 312.391V298.656C231.531 295.812 230.609 293.672 228.766 292.234C227.203 291.016 225.156 290.406 222.625 290.406H213.672V312.766ZM234.672 291.859C235.422 293.547 235.797 297.453 235.797 303.578C235.797 311.328 235.516 315.875 234.953 317.219C235.609 317.094 236.281 316.297 236.969 314.828C237.656 313.359 238.141 311.844 238.422 310.281C238.703 308.719 238.891 307.656 238.984 307.094C239.109 306.531 239.281 306.031 239.5 305.594C240 304.656 240.844 303.984 242.031 303.578C240.156 302.984 239.047 301.797 238.703 300.016C238.391 298.234 238.078 296.859 237.766 295.891C237.453 294.922 237.125 294.156 236.781 293.594C236.188 292.594 235.484 292.016 234.672 291.859Z" fill="#363537"/>
<path d="M326.547 324.766C325.609 325.547 324.453 325.938 323.078 325.938C321.703 325.938 320.625 325.562 319.844 324.812C319.094 324.062 318.719 323.172 318.719 322.141C318.719 321.109 318.875 320.359 319.188 319.891C319.938 320.328 320.766 320.547 321.672 320.547C322.609 320.547 323.453 320.453 324.203 320.266C324.953 320.078 325.719 319.734 326.5 319.234C328.156 318.172 329.859 316.422 331.609 313.984L340.938 301.188L325.656 278.312C324.812 277.062 324.141 276.344 323.641 276.156C323.172 275.938 322.719 275.828 322.281 275.828C321.219 275.828 320.344 276.094 319.656 276.625C319.312 276.281 319.141 275.75 319.141 275.031C319.141 274.281 319.219 273.672 319.375 273.203C319.562 272.703 319.844 272.266 320.219 271.891C321.125 271.047 322.391 270.625 324.016 270.625C325.672 270.625 327.219 271.078 328.656 271.984C329.875 271.078 331.344 270.625 333.062 270.625C334.812 270.625 336.406 271.156 337.844 272.219C339.406 271.156 340.891 270.625 342.297 270.625C343.703 270.625 344.766 270.734 345.484 270.953C346.203 271.172 346.844 271.469 347.406 271.844C348.562 272.688 349.141 273.734 349.141 274.984C349.141 275.734 348.906 276.344 348.438 276.812C347.719 276.25 346.922 275.969 346.047 275.969C344.797 275.969 343.719 276.25 342.812 276.812L351.438 289.656L360.109 277.047C358.922 276.203 357.781 275.781 356.688 275.781C355.625 275.781 354.578 276.078 353.547 276.672C353.203 276.109 353.031 275.359 353.031 274.422C353.031 273.484 353.469 272.625 354.344 271.844C355.219 271.031 356.344 270.625 357.719 270.625C359.094 270.625 360.328 271.078 361.422 271.984C362.547 271.078 363.734 270.625 364.984 270.625C366.266 270.625 367.5 271.031 368.688 271.844C369.656 271.031 370.609 270.625 371.547 270.625C372.484 270.625 373.188 270.719 373.656 270.906C374.125 271.062 374.562 271.312 374.969 271.656C375.844 272.375 376.281 273.281 376.281 274.375C376.281 275.438 376.125 276.203 375.812 276.672C375.062 276.234 374.281 276.016 373.469 276.016C372.656 276.016 371.906 276.109 371.219 276.297C370.531 276.453 369.844 276.75 369.156 277.188C367.594 278.156 366.094 279.641 364.656 281.641L354.859 294.812L368.547 315.25C369.078 316 369.531 316.703 369.906 317.359C370.312 318.016 370.719 318.594 371.125 319.094C372.062 320.188 373.109 320.734 374.266 320.734C375.453 320.734 376.391 320.469 377.078 319.938C377.422 320.281 377.594 320.953 377.594 321.953C377.594 322.953 377.172 323.875 376.328 324.719C375.484 325.531 374.234 325.938 372.578 325.938C370.953 325.938 369.594 325.422 368.5 324.391C367.125 325.422 365.469 325.938 363.531 325.938C361.594 325.938 359.812 325.406 358.188 324.344C356.75 325.406 355.141 325.938 353.359 325.938C351.609 325.938 350.234 325.531 349.234 324.719C348.234 323.875 347.734 322.828 347.734 321.578C347.734 320.828 347.969 320.219 348.438 319.75C349.188 320.312 349.906 320.594 350.594 320.594C351.75 320.594 352.734 320.422 353.547 320.078L344.172 306.016L335.828 319.609C336.734 320.391 337.766 320.781 338.922 320.781C340.078 320.781 341.172 320.484 342.203 319.891C342.547 320.453 342.719 321.094 342.719 321.812C342.719 324.562 341.172 325.938 338.078 325.938C336.578 325.938 335.25 325.438 334.094 324.438C332.938 325.438 331.641 325.938 330.203 325.938C328.766 325.938 327.547 325.547 326.547 324.766ZM336.016 281.359C335.672 281.859 335.5 282.5 335.5 283.281C335.5 284.062 335.703 284.859 336.109 285.672C336.516 286.453 337.031 287.312 337.656 288.25L341.406 293.594L354.203 312.578C354.609 312.078 354.812 311.406 354.812 310.562C354.812 309.25 353.078 306.047 349.609 300.953L336.016 281.359Z" fill="#363537"/>
<path d="M14.0737 138.641C12.8091 139.564 11.3564 140.025 9.71582 140.025C8.10938 140.025 6.81055 139.615 5.81934 138.795C4.8623 137.94 4.38379 136.966 4.38379 135.873C4.38379 134.779 4.55469 133.976 4.89648 133.463C5.8877 134.044 7.45996 134.334 9.61328 134.334C10.4678 134.334 11.4077 133.907 12.4331 133.053C13.4585 132.164 14.2788 130.951 14.894 129.413V105.367C14.894 103.761 14.5522 102.564 13.8687 101.778C12.8433 100.548 11.1001 99.3345 8.63916 98.1382C11.1343 96.9419 12.7065 95.9507 13.356 95.1646C14.3813 93.8657 14.894 92.4131 14.894 90.8066L14.9453 68.4531C14.125 66.2998 12.3135 65.2231 9.51074 65.2231C8.0752 65.2231 7.01562 65.5137 6.33203 66.0947C5.99023 65.6504 5.81934 65.0693 5.81934 64.3516C5.81934 63.6338 5.97314 62.9844 6.28076 62.4033C6.58838 61.8223 7.01562 61.3096 7.5625 60.8652C8.72461 59.9766 10.2798 59.5322 12.228 59.5322C14.1763 59.5322 15.7827 60.0962 17.0474 61.2241C18.1753 60.0962 19.4912 59.5322 20.9951 59.5322C22.499 59.5322 23.7808 60.1646 24.8403 61.4292C26.1733 60.1646 27.3525 59.5322 28.3779 59.5322C29.4033 59.5322 30.1895 59.6177 30.7363 59.7886C31.2832 59.9595 31.8301 60.2842 32.377 60.7627C33.4707 61.6172 34.6157 63.3433 35.812 65.9409L55.4482 106.7L71.6494 66.7612L73.085 63.4287C73.9395 61.5488 74.7427 60.438 75.4946 60.0962C76.2466 59.7202 77.1182 59.5322 78.1094 59.5322C79.1348 59.5322 80.1772 59.9082 81.2368 60.6602C82.5356 59.9082 84.2275 59.5322 86.3125 59.5322C88.4316 59.5322 90.2603 60.0962 91.7983 61.2241C93.1655 60.0962 94.584 59.5322 96.0537 59.5322C97.5576 59.5322 98.7197 59.6519 99.54 59.8911C100.395 60.1304 101.129 60.4551 101.745 60.8652C103.043 61.7881 103.693 62.9331 103.693 64.3003C103.693 64.9839 103.505 65.582 103.129 66.0947C102.377 65.5137 101.42 65.2231 100.258 65.2231C97.6602 65.2231 95.8999 66.4365 94.9771 68.8633V90.8066C94.9771 92.4814 95.3359 93.729 96.0537 94.5493C97.1816 95.8823 98.9077 97.0786 101.232 98.1382C98.7368 99.3687 97.1475 100.377 96.4639 101.163C95.4727 102.394 94.9771 103.795 94.9771 105.367V130.438C96.1392 133.036 98.2412 134.334 101.283 134.334C102.445 134.334 103.402 134.044 104.154 133.463C104.53 133.976 104.718 134.574 104.718 135.257C104.718 135.907 104.513 136.522 104.103 137.103C103.727 137.684 103.197 138.18 102.514 138.59C100.941 139.547 99.147 140.025 97.1304 140.025C95.1138 140.025 93.2339 139.479 91.4907 138.385C89.8843 139.479 88.0557 140.025 86.0049 140.025C83.8174 140.025 81.8862 139.479 80.2114 138.385C78.4683 139.479 76.8447 140.025 75.3408 140.025C73.8711 140.025 72.6577 139.889 71.7007 139.615C70.7437 139.376 69.9062 139.034 69.1885 138.59C67.7188 137.701 66.9839 136.59 66.9839 135.257C66.9839 134.574 67.1719 133.976 67.5479 133.463C68.2998 134.044 69.2568 134.334 70.4189 134.334C73.4609 134.334 75.563 133.036 76.7251 130.438V74.4004L56.73 123.927L54.5254 128.951C53.4658 131.344 52.7139 132.694 52.2695 133.001C51.8594 133.309 51.5176 133.463 51.2441 133.463C50.3896 133.463 49.7915 133.377 49.4497 133.207L22.0718 79.2197V129.361C22.7212 130.934 23.6099 132.164 24.7378 133.053C25.8657 133.907 27.1304 134.334 28.5317 134.334C29.9331 134.334 31.1294 134.044 32.1206 133.463C32.4966 134.078 32.6846 134.933 32.6846 136.026C32.6846 137.086 32.1548 138.026 31.0952 138.846C30.0356 139.632 28.6685 140.025 26.9937 140.025C25.3188 140.025 23.7808 139.598 22.3794 138.744C21.1489 139.598 19.7305 140.025 18.124 140.025C16.5518 140.025 15.2017 139.564 14.0737 138.641ZM29.3008 74.8618C28.959 75.3745 28.7881 76.1094 28.7881 77.0664C28.7881 79.835 29.9502 83.5093 32.2744 88.0894L50.9365 125.362C51.1758 125.055 51.2954 124.405 51.2954 123.414C51.2954 120.44 49.877 116.083 47.04 110.34L29.3008 74.8618ZM81.647 125.414C83.356 124.764 84.2959 122.525 84.4668 118.697C84.6719 114.869 84.7744 109.571 84.7744 102.804C84.7744 96.0361 84.7573 91.5415 84.7231 89.3198C84.7231 87.064 84.7061 85.2524 84.6719 83.8853C84.5693 79.8521 84.1763 77.4253 83.4927 76.605C82.8433 75.7505 82.228 75.1865 81.647 74.9131V125.414ZM21.354 126.08C21.354 126.354 21.3711 126.559 21.4053 126.695L21.354 126.08ZM15.6118 126.08C15.5776 126.217 15.5605 126.422 15.5605 126.695L15.6118 126.08Z" fill="#363537"/>
<path d="M243.226 71.1704C241.483 71.1704 239.791 70.709 238.15 69.7861C236.544 68.8633 235.313 67.6328 234.459 66.0947C233.536 64.5225 232.306 63.3262 230.768 62.5059C230.289 62.2666 229.742 62.0103 229.127 61.7368L230.87 60.6602C232.511 59.6348 233.724 58.3872 234.51 56.9175C235.296 55.4478 236.476 54.3027 238.048 53.4824C239.654 52.6279 241.38 52.2007 243.226 52.2007C247.054 52.2007 249.823 53.8071 251.532 57.02C252.694 59.1392 254.488 60.7114 256.915 61.7368C256.402 62.0444 255.89 62.3179 255.377 62.5571C254.898 62.7964 254.437 63.0698 253.993 63.3774C253.001 64.061 252.113 65.0693 251.327 66.4023C250.575 67.7354 249.464 68.8633 247.994 69.7861C246.559 70.709 244.969 71.1704 243.226 71.1704ZM240.509 64.9155C240.304 64.5396 240.133 64.1123 239.996 63.6338C239.894 63.1211 239.842 62.2324 239.842 60.9678C239.842 59.7031 240.492 58.0967 241.791 56.1484C240.526 56.1484 239.637 56.3877 239.125 56.8662C238.612 57.3105 238.219 57.7036 237.945 58.0454C237.706 58.353 237.484 58.6777 237.279 59.0195C237.108 59.3271 236.886 59.6689 236.612 60.0449C235.963 60.9678 235.433 61.5317 235.023 61.7368C235.57 62.0444 236.065 62.54 236.51 63.2236C236.988 63.873 237.535 64.5566 238.15 65.2744C239.073 66.4023 240.287 66.9663 241.791 66.9663C241.585 66.5903 241.363 66.2485 241.124 65.9409C240.919 65.5991 240.714 65.2573 240.509 64.9155ZM238.099 138.385C236.527 139.479 234.732 140.025 232.716 140.025C230.733 140.025 229.247 139.581 228.255 138.692C227.298 137.804 226.82 136.949 226.82 136.129C226.82 135.001 227.059 134.112 227.538 133.463C228.29 134.044 229.4 134.334 230.87 134.334C232.34 134.334 233.604 133.377 234.664 131.463V115.108C234.664 113.604 234.356 112.511 233.741 111.827C232.75 110.802 230.973 109.657 228.409 108.392C230.802 107.298 232.323 106.427 232.972 105.777C234.1 104.649 234.664 103.265 234.664 101.625V94.1392C234.664 91.2339 233.673 89.6616 231.69 89.4224C231.109 89.354 230.375 89.3198 229.486 89.3198C228.597 89.3198 227.777 89.6104 227.025 90.1914C226.546 89.542 226.307 88.8755 226.307 88.1919C226.307 87.4741 226.478 86.688 226.82 85.8335C227.196 84.9448 227.76 84.1074 228.512 83.3213C230.289 81.4756 232.34 80.5527 234.664 80.5527C236.988 80.5527 239.09 80.9629 240.97 81.7832C242.645 79.5957 244.559 78.502 246.712 78.502C250.233 78.502 251.993 80.3477 251.993 84.0391V101.625C251.993 103.265 252.352 104.444 253.07 105.162C254.129 106.222 255.855 107.298 258.248 108.392C255.685 109.657 254.078 110.614 253.429 111.263C252.472 112.323 251.993 113.604 251.993 115.108V131.617C253.121 133.429 254.403 134.334 255.838 134.334C257.274 134.334 258.368 134.044 259.12 133.463C259.598 134.112 259.837 134.933 259.837 135.924C259.837 136.881 259.342 137.804 258.351 138.692C257.394 139.581 255.941 140.025 253.993 140.025C252.044 140.025 250.233 139.479 248.558 138.385C247.157 139.479 245.465 140.025 243.482 140.025C241.5 140.025 239.706 139.479 238.099 138.385ZM242.508 114.083C242.542 112.921 242.56 111.947 242.56 111.161C242.594 110.375 242.611 109.742 242.611 109.264V107.879C242.611 107.367 242.594 106.7 242.56 105.88C242.56 105.06 242.542 104.154 242.508 103.163C242.508 102.171 242.491 101.197 242.457 100.24C242.32 97.8818 242.149 96.2583 241.944 95.3696C241.534 93.3872 240.748 92.02 239.586 91.2681V94.6006C239.586 100.377 239.449 103.778 239.176 104.803C238.937 105.794 238.526 106.546 237.945 107.059C237.398 107.538 236.578 107.965 235.484 108.341C237.535 109.059 238.697 109.93 238.971 110.956C239.381 112.596 239.586 116.305 239.586 122.081V125.414C241.158 124.388 242.047 122.286 242.252 119.107C242.423 116.92 242.508 115.245 242.508 114.083Z" fill="#363537"/>
<path d="M304.424 123.517C305.176 122.081 306.561 121.363 308.577 121.363C309.944 121.363 311.004 121.927 311.756 123.055C312.371 123.944 312.679 125.038 312.679 126.336C312.679 127.601 312.354 128.883 311.705 130.182C311.089 131.48 310.252 132.66 309.192 133.719C308.133 134.779 306.902 135.719 305.501 136.539C304.134 137.359 302.664 138.043 301.092 138.59C297.913 139.718 294.598 140.282 291.146 140.282C287.693 140.282 284.429 139.684 281.353 138.487C278.277 137.257 275.628 135.548 273.406 133.36C268.929 128.951 266.229 123.038 265.306 115.621C265.066 113.946 264.673 112.75 264.126 112.032C263.101 110.768 261.409 109.554 259.051 108.392C262.674 106.751 264.759 103.795 265.306 99.5225C266.194 92.9941 269.1 87.833 274.021 84.0391C278.738 80.3477 284.48 78.502 291.248 78.502C297.093 78.502 302.015 80.2793 306.014 83.834C309.808 87.1836 311.705 91.063 311.705 95.4722C311.705 97.9673 312.576 99.5566 314.319 100.24C313.294 101.915 311.858 102.752 310.013 102.752C309.363 102.752 308.765 102.684 308.218 102.547C307.022 104.291 305.296 105.47 303.04 106.085C302.322 106.256 301.639 106.341 300.989 106.341C300.34 106.341 299.571 106.222 298.682 105.982C297.793 105.709 297.178 105.35 296.836 104.906C297.828 104.496 298.409 103.47 298.58 101.83C298.375 101.864 298.187 101.881 298.016 101.881H297.605C295.281 101.881 293.846 100.548 293.299 97.8818C295.828 97.8818 297.674 96.9077 298.836 94.9595C299.246 94.2759 299.451 93.4385 299.451 92.4473C299.451 90.2598 298.75 88.5508 297.349 87.3203C295.948 86.0557 294 85.4233 291.504 85.4233C285.728 85.4233 282.84 89.1489 282.84 96.6001V121.517C282.84 127.328 285.062 131.002 289.505 132.54C290.804 133.019 292.273 133.258 293.914 133.258C295.555 133.258 297.042 133.053 298.375 132.643C299.742 132.232 300.887 131.668 301.81 130.951C303.689 129.481 304.629 127.618 304.629 125.362C304.629 124.679 304.561 124.063 304.424 123.517ZM274.278 125.414C274.756 125.038 274.996 124.61 274.996 124.132C274.996 123.38 274.842 122.423 274.534 121.261C273.133 115.895 272.432 112.169 272.432 110.084C272.432 107.965 272.5 106.324 272.637 105.162C272.774 103.966 272.962 102.77 273.201 101.573C273.611 99.249 274.056 97.1982 274.534 95.4209C274.842 94.2588 274.996 93.4727 274.996 93.0625C274.996 92.2422 274.756 91.644 274.278 91.2681C272.842 92.9771 271.749 95.2671 270.997 98.1382C270.245 101.009 269.629 103.539 269.151 105.726C268.98 106.615 267.972 107.486 266.126 108.341C267.972 109.195 268.98 110.067 269.151 110.956C270.416 116.732 271.458 120.406 272.278 121.979C273.099 123.551 273.765 124.696 274.278 125.414Z" fill="#363537"/>
</svg>
